<?xml version="1.0" encoding="UTF-8"?>
<svg id="Logotype_Editable_Text" xmlns="http://www.w3.org/2000/svg" viewBox="0 0 214.27 178.41">
  <defs>
    <style>
      .cls-1 {
        fill: #757575;
      }

      .cls-1, .cls-2, .cls-3 {
        stroke-width: 0px;
      }

      .cls-2 {
        fill: #fff;
      }

      .cls-3 {
        fill: #c8202f;
      }
    </style>
  </defs>
  <path class="cls-1" d="M107.14,0C54.51,0,11.7,42.81,11.7,95.43c0,26.46,10.58,51.07,29.8,69.28l1.05.99,1.06-.98c2.76-2.55,5.66-4.92,8.68-7.1,14.64,12.92,33.84,20.79,54.85,20.79s40.18-7.85,54.81-20.76c3,2.17,5.9,4.52,8.65,7.07l1.06.98,1.05-.99c19.26-18.25,29.86-42.85,29.86-69.28C202.57,42.81,159.76,0,107.14,0ZM107.14,175.34c-19.96,0-38.22-7.37-52.24-19.52,12.68-8.52,27.29-13.8,42.61-15.36l18.13-.08c15.72,1.42,30.71,6.73,43.71,15.48-14.02,12.13-32.26,19.49-52.21,19.49ZM115.63,137.28l-18.13.07c-16.19,1.6-31.63,7.23-44.96,16.34-15.56-14.59-25.31-35.3-25.31-58.26C27.23,51.37,63.08,15.53,107.14,15.53s79.9,35.84,79.9,79.9c0,22.97-9.76,43.7-25.33,58.29-13.65-9.35-29.47-14.99-46.08-16.44ZM190.12,95.43c0-45.76-37.22-82.98-82.98-82.98S24.16,49.68,24.16,95.43c0,23.62,9.94,44.95,25.83,60.08-2.55,1.87-5.03,3.85-7.4,5.98-17.94-17.52-27.81-40.92-27.81-66.05C14.78,44.51,56.21,3.08,107.14,3.08s92.35,41.43,92.35,92.35c0,25.1-9.89,48.5-27.87,66.06-2.36-2.12-4.82-4.09-7.36-5.95,15.91-15.13,25.86-36.47,25.86-60.1Z" />
  <g>
    <path class="cls-1" d="M171.5,159.81c-.53,0-.95-.37-.95-.83s.42-.83.95-.83.96.37.96.83-.43.83-.96.83h0ZM171.5,157.89c-.66,0-1.2.49-1.2,1.09s.54,1.08,1.2,1.08,1.2-.48,1.2-1.08-.54-1.09-1.2-1.09h0Z" />
    <path class="cls-1" d="M172.14,158.74c0-.13-.06-.42-.57-.42h-.46c-.12,0-.22.1-.22.21v1.04h.06c.13,0,.23-.1.23-.22v-.75h.39c.28,0,.28.1.28.13,0,.04-.01.07-.06.09-.05.03-.13.05-.23.05h-.14c-.12,0-.21.09-.22.2v.08h.29s.03.04.28.34c.08.09.22.1.32.02l.04-.04c-.23-.27-.3-.36-.3-.36.04-.01.08-.02.11-.05.12-.07.2-.19.2-.34h0Z" />
    <polygon class="cls-2" points="92.94 154.35 107.96 128.07 126.45 162.42 92.94 154.35 92.94 154.35" />
    <path class="cls-1" d="M94.85,153.53l29.18,7.02-16.1-29.9-13.08,22.88h0ZM128.87,164.29l-37.85-9.11,16.97-29.69,20.88,38.79h0Z" />
    <path class="cls-2" d="M93.5,161.34h-.25c-2.89,0-5.23-2.34-5.23-5.23v-7.11c0-2.89,2.34-5.23,5.23-5.23h.25c2.89,0,5.23,2.34,5.23,5.23v7.11c0,2.89-2.34,5.23-5.23,5.23h0Z" />
    <path class="cls-1" d="M93.5,145.02c-2.54,0-4.23,1.07-4.23,1.77s1.69,1.77,4.23,1.77,4.23-1.07,4.23-1.77-1.69-1.77-4.23-1.77h0ZM93.5,151.07c-3.84,0-6.73-1.84-6.73-4.27s2.89-4.27,6.73-4.27,6.73,1.84,6.73,4.27-2.89,4.27-6.73,4.27h0Z" />
    <polygon class="cls-1" points="89.27 158.53 86.77 158.53 86.77 146.8 89.27 146.8 89.27 158.53 89.27 158.53" />
    <polygon class="cls-1" points="100.23 158.53 97.74 158.53 97.74 146.8 100.23 146.8 100.23 158.53 100.23 158.53" />
    <path class="cls-1" d="M93.5,156.74c-3.84,0-6.73-1.84-6.73-4.27h2.5c0,.71,1.69,1.77,4.23,1.77s4.23-1.07,4.23-1.77h2.5c0,2.44-2.89,4.27-6.73,4.27h0Z" />
    <path class="cls-1" d="M93.5,162.59c-3.84,0-6.73-1.84-6.73-4.27h2.5c0,.71,1.69,1.77,4.23,1.77s4.23-1.07,4.23-1.77h2.5c0,2.44-2.89,4.27-6.73,4.27h0Z" />
    <path class="cls-2" d="M133.59,160.35c0,4.61-3.74,8.35-8.35,8.35s-8.35-3.74-8.35-8.35,3.74-8.35,8.35-8.35,8.35,3.74,8.35,8.35h0Z" />
    <path class="cls-1" d="M125.24,153.25c-3.92,0-7.1,3.19-7.1,7.1s3.18,7.1,7.1,7.1,7.1-3.18,7.1-7.1-3.19-7.1-7.1-7.1h0ZM125.24,169.95c-5.29,0-9.6-4.31-9.6-9.6s4.31-9.6,9.6-9.6,9.6,4.31,9.6,9.6-4.31,9.6-9.6,9.6h0Z" />
    <path class="cls-1" d="M125.24,169.95v-2.5c.65,0,2.23-2.49,2.23-7.1s-1.58-7.1-2.23-7.1v-2.5c3.11,0,4.73,4.83,4.73,9.6s-1.62,9.6-4.73,9.6h0Z" />
    <path class="cls-1" d="M125.24,169.95c-3.11,0-4.73-4.83-4.73-9.6s1.62-9.6,4.73-9.6v2.5c-.65,0-2.23,2.49-2.23,7.1s1.58,7.1,2.23,7.1v2.5h0Z" />
    <polygon class="cls-1" points="133.59 161.6 116.89 161.6 116.89 159.1 133.59 159.1 133.59 161.6 133.59 161.6" />
    <path class="cls-2" d="M120.26,127.64c-.77-.79-1.96-1.18-3.04-1.25-1.38-.09-2.74.43-3.7,1.42-.09.1-.18.2-.26.3-.18.22-.53.17-.62-.11-.77-2.4-3.02-4.15-5.69-4.15-3.12,0-5.68,2.39-5.94,5.44-.01.14-.17.21-.28.13-1.63-1.17-4.1-.69-5.11,1.04-.98,1.69-.28,3.95,1.39,4.9,1.19.67,2.64.44,3.95.44h15.24c1.41,0,2.81-.27,3.87-1.26,1.04-.96,1.63-2.36,1.53-3.78-.07-1.11-.52-2.28-1.3-3.09-.01-.01-.02-.02-.03-.03h0Z" />
    <path class="cls-1" d="M112.29,127.31s0,0,0,0c0,0,0,0,0,0h0ZM98.68,130.02c-.18,0-.35.02-.53.06-.63.13-1.16.5-1.45,1.01-.29.5-.36,1.11-.19,1.71.17.63.58,1.17,1.12,1.48.64.36,1.53.33,2.48.3.29-.01.57-.02.85-.02h15.24c1.38,0,2.34-.3,3.02-.93.78-.72,1.2-1.76,1.14-2.78-.06-.88-.42-1.74-.96-2.31l.87-.9-.89.88c-.48-.49-1.32-.82-2.23-.88-1.01-.06-2.02.32-2.72,1.04-.07.07-.13.15-.2.22-.37.46-.97.67-1.55.56-.58-.11-1.05-.53-1.23-1.09-.63-1.96-2.44-3.28-4.49-3.28-2.46,0-4.48,1.85-4.7,4.3-.04.51-.36.96-.82,1.17-.46.21-1.01.16-1.43-.14-.37-.27-.83-.41-1.31-.41h0ZM99.3,137.09c-.95,0-1.95-.1-2.9-.64-1.12-.63-1.96-1.72-2.3-3-.34-1.25-.18-2.54.44-3.62.64-1.11,1.77-1.91,3.09-2.2.82-.17,1.65-.14,2.42.08.9-3,3.65-5.12,6.91-5.12,2.68,0,5.09,1.46,6.33,3.75,1.14-.87,2.56-1.3,4.02-1.21,1.53.1,2.93.69,3.84,1.62v.02s-.89.86-.89.86l.92-.85c.97,1.01,1.57,2.42,1.67,3.89.12,1.76-.6,3.55-1.93,4.78-1.16,1.08-2.7,1.6-4.72,1.6h-15.24c-.25,0-.51,0-.77.02-.29,0-.59.02-.89.02h0Z" />
    <path class="cls-3" d="M0,60.08v49.89c0,4.61,3.75,8.37,8.36,8.37h205.91v-49.89c0-4.61-3.75-8.37-8.36-8.37H0Z" />
    <g>
      <path class="cls-3" d="M82.98,51.06c-3.52,0-6.28-2.47-6.28-5.66s2.76-5.69,6.28-5.69,6.28,2.5,6.28,5.69-2.76,5.66-6.28,5.66M82.98,41.99c-2.24,0-4,1.5-4,3.4s1.76,3.38,4,3.38,4-1.47,4-3.38-1.76-3.4-4-3.4" />
      <path class="cls-3" d="M105.45,51.06c-1.26,0-2.28-1.05-2.28-2.33v-4.71c0-1.12-.98-2.02-2.19-2.02s-2.17.9-2.17,2.02v7.04c-1.26,0-2.29-1.02-2.29-2.28v-4.76c0-1.12-.98-2.02-2.19-2.02s-2.17.9-2.17,2.02v4.74c0,1.26-1.02,2.31-2.28,2.31v-7.04c0-2.38,2-4.31,4.45-4.31,1.33,0,2.52.55,3.33,1.43.81-.88,2-1.43,3.31-1.43,2.47,0,4.47,1.93,4.47,4.31v7.04h0Z" />
      <path class="cls-3" d="M112.87,51.03c-.6,0-1.17-.05-1.69-.17-1.19-.33-1.88-1.57-1.57-2.76.04-.14.09-.28.14-.4l.02-.02c.64.72,1.69,1.07,3.09,1.07,2.1,0,3.74-1.47,3.74-3.33s-1.64-3.45-3.74-3.45c-1.98,0-3.95,1.09-3.95,3.5v7.4c0,1.24-1.04,2.24-2.28,2.24v-9.64c0-3.33,2.62-5.78,6.24-5.78,1.6,0,3.09.6,4.23,1.64,1.15,1.07,1.79,2.52,1.79,4.09,0,3.14-2.64,5.62-6.02,5.62" />
      <path class="cls-3" d="M129.16,37.54h-4.89v13.52h-.1c-1.21,0-2.19-1.04-2.19-2.28v-11.23h-4.89c-1.24,0-2.24-1.02-2.24-2.26h16.56c0,1.24-1,2.26-2.26,2.26" />
      <path class="cls-3" d="M148.73,49.62l-1.21-2.61h-8.12s-1.2,2.68-1.2,2.68c-.57,1.08-2.07,1.4-3.23,1.4l6.61-14.5c.38-.83,1.04-1.31,1.81-1.31s1.46.48,1.83,1.31l6.54,14.33c-1.23.12-2.57-.25-3.05-1.3M143.66,37.64l-3.25,7.14h6.13l-3.27-7.16.39.02h0Z" />
      <path class="cls-3" d="M74.14,39.54c-1.24-1.31-3.05-2.16-5.05-2.16-3.54,0-6.43,2.57-6.43,5.73,0,3.16,2.88,5.76,6.43,5.76,1.69,0,3.28-.64,4.5-1.66.83-.69,2.07-.64,2.88.05-.62.95-1.45,1.78-2.48,2.43-1.45.93-3.14,1.41-4.9,1.41-4.78,0-8.66-3.57-8.66-7.97s3.88-7.97,8.66-7.97c3.4,0,6.5,1.86,7.88,4.71-.88.57-2.09.5-2.83-.31" />
      <path class="cls-3" d="M152.64,50.18c-.66,0-1.2-.48-1.2-1.08s.54-1.09,1.2-1.09,1.2.49,1.2,1.09-.54,1.08-1.2,1.08M152.64,48.27c-.53,0-.95.37-.95.83s.42.83.95.83.96-.37.96-.83-.43-.83-.96-.83M153.08,49.21s-.07.03-.11.05c0,0,.07.09.3.36l-.04.04c-.1.08-.24.07-.32-.03-.25-.3-.28-.34-.28-.34h-.29v-.08c.01-.11.1-.2.22-.2h.14c.1,0,.18-.02.23-.05.04-.02.06-.05.06-.09,0-.04,0-.13-.28-.13h-.39v.75c0,.12-.1.22-.23.22h-.06v-1.04c0-.12.1-.21.22-.21h.46c.52,0,.57.29.57.42,0,.15-.08.27-.2.34" />
      <path class="cls-3" d="M132.15,35.29v13.56c0,1.21,1.05,2.21,2.28,2.21v-13.56c0-1.21-1.05-2.21-2.28-2.21" />
    </g>
  </g>
  <g>
    <path class="cls-2" d="M34.89,81.21c-1.11,0-2.1.2-2.96.61-.86.41-1.59,1-2.19,1.77-.6.77-1.05,1.7-1.36,2.79-.31,1.09-.46,2.31-.46,3.67,0,1.84.25,3.41.75,4.71.5,1.3,1.26,2.31,2.29,3.01,1.03.7,2.33,1.05,3.89,1.05,1.04,0,2.05-.11,3.01-.32.96-.22,1.98-.5,3.04-.87v3.71c-1,.41-2,.7-3.01.88-1.01.18-2.17.27-3.48.27-2.49,0-4.56-.52-6.19-1.55-1.63-1.03-2.84-2.48-3.64-4.35s-1.19-4.06-1.19-6.58c0-1.84.26-3.51.77-5.03s1.25-2.83,2.21-3.94c.96-1.11,2.16-1.97,3.59-2.58,1.43-.61,3.07-.92,4.93-.92,1.22,0,2.43.14,3.62.43,1.19.28,2.31.67,3.35,1.17l-1.5,3.57c-.86-.38-1.75-.73-2.67-1.04-.92-.31-1.85-.46-2.81-.46Z" />
    <path class="cls-2" d="M49.27,102.15h-4.28v-25.84h4.28v25.84Z" />
    <path class="cls-2" d="M70.45,92.9c0,1.54-.2,2.9-.61,4.08-.41,1.18-.99,2.18-1.75,3.01-.76.83-1.69,1.45-2.79,1.87-1.1.42-2.32.63-3.66.63s-2.44-.21-3.5-.63c-1.07-.42-1.99-1.04-2.77-1.87-.78-.83-1.39-1.83-1.82-3.01-.43-1.18-.65-2.54-.65-4.08,0-2.04.35-3.77,1.05-5.19.7-1.42,1.72-2.49,3.04-3.23,1.33-.74,2.9-1.1,4.71-1.1s3.24.37,4.54,1.1c1.3.74,2.33,1.81,3.08,3.23.75,1.42,1.12,3.15,1.12,5.19ZM57.29,92.9c0,1.29.15,2.4.46,3.31.31.92.78,1.62,1.43,2.09.65.48,1.48.71,2.5.71s1.89-.24,2.53-.71c.65-.48,1.12-1.17,1.41-2.09.29-.92.44-2.02.44-3.31s-.15-2.42-.46-3.31c-.31-.9-.78-1.58-1.43-2.04-.65-.46-1.48-.7-2.5-.7-1.54,0-2.66.52-3.35,1.56s-1.04,2.54-1.04,4.49Z" />
    <path class="cls-2" d="M90.48,83.72v18.43h-3.37l-.58-2.38h-.2c-.39.63-.88,1.15-1.5,1.55-.61.4-1.28.69-2.01.88-.73.19-1.47.29-2.24.29-1.36,0-2.54-.24-3.54-.71-1-.48-1.76-1.21-2.28-2.19-.52-.99-.78-2.26-.78-3.83v-12.04h4.28v11.19c0,1.36.27,2.39.82,3.08.54.69,1.41,1.04,2.58,1.04s2.06-.24,2.72-.73c.66-.49,1.12-1.2,1.39-2.12.27-.93.41-2.07.41-3.43v-9.01h4.28Z" />
    <path class="cls-2" d="M101.29,102.49c-2.13,0-3.86-.8-5.19-2.4-1.33-1.6-1.99-3.97-1.99-7.12s.67-5.54,2.01-7.16,3.09-2.43,5.27-2.43c.91,0,1.71.12,2.4.36.69.24,1.29.56,1.79.97.5.41.92.86,1.26,1.36h.2c-.07-.32-.14-.8-.2-1.46-.07-.66-.1-1.27-.1-1.84v-6.46h4.28v25.84h-3.33l-.78-2.41h-.17c-.34.5-.76.96-1.26,1.38-.5.42-1.09.75-1.77,1-.68.25-1.48.37-2.41.37ZM102.58,99.02c1.59,0,2.71-.45,3.37-1.36.66-.91.99-2.28.99-4.11v-.54c0-1.99-.31-3.51-.94-4.56-.62-1.04-1.78-1.56-3.48-1.56-1.29,0-2.29.54-2.99,1.62s-1.05,2.59-1.05,4.54.35,3.43,1.05,4.45,1.72,1.53,3.06,1.53Z" />
    <path class="cls-2" d="M136.78,102.15h-5.41l-11.49-19.04h-.14c.04.68.08,1.39.12,2.14.03.75.07,1.51.1,2.29.03.78.06,1.57.08,2.36v12.24h-3.91v-24.28h5.37l11.46,18.9h.1c-.02-.59-.05-1.26-.07-2.01-.02-.75-.05-1.51-.08-2.29-.03-.78-.06-1.54-.08-2.26v-12.34h3.94v24.28Z" />
    <path class="cls-2" d="M149.36,83.38c1.65,0,3.08.33,4.27,1,1.19.67,2.11,1.62,2.77,2.86.66,1.24.99,2.74.99,4.51v2.18h-12.17c.04,1.68.51,2.98,1.39,3.89.88.92,2.11,1.38,3.67,1.38,1.2,0,2.27-.12,3.21-.36.94-.24,1.91-.58,2.91-1.04v3.43c-.91.43-1.85.75-2.82.95-.97.2-2.14.31-3.5.31-1.79,0-3.38-.35-4.78-1.04s-2.48-1.74-3.26-3.15c-.78-1.41-1.17-3.15-1.17-5.24s.36-3.88,1.07-5.32c.71-1.44,1.71-2.53,2.98-3.26,1.27-.74,2.75-1.1,4.45-1.1ZM149.36,86.54c-1.13,0-2.06.37-2.77,1.1-.71.74-1.14,1.83-1.27,3.28h7.92c0-.86-.14-1.62-.42-2.28-.28-.66-.71-1.17-1.28-1.55s-1.29-.56-2.18-.56Z" />
    <path class="cls-2" d="M168.1,99.06c.54,0,1.06-.05,1.56-.15.5-.1.96-.22,1.39-.36v3.2c-.45.2-1.04.38-1.77.53-.73.15-1.48.22-2.28.22-1.04,0-1.99-.18-2.84-.53-.85-.35-1.53-.96-2.04-1.82-.51-.86-.76-2.06-.76-3.6v-9.59h-2.48v-1.87l2.72-1.5,1.36-3.91h2.69v4.05h5.24v3.23h-5.24v9.55c0,.86.23,1.5.68,1.92.45.42,1.04.63,1.77.63Z" />
    <path class="cls-2" d="M192.85,102.15h-4.96l-5.95-9.69-5.98,9.69h-4.62l8.06-12.58-7.55-11.7h4.79l5.51,9.04,5.47-9.04h4.66l-7.58,11.87,8.16,12.41Z" />
  </g>
</svg>